# Blender v2.93.5 OBJ File: 'mouse.blend'
# www.blender.org
mtllib Glass.mtl
o Glass
v -0.275000 -4.992279 -0.400000
v 0.275000 -4.992279 -0.400000
v -0.275000 -5.028330 -0.402332
v 0.275000 -5.028330 -0.402332
v -0.275000 -5.063840 -0.408981
v 0.275000 -5.063840 -0.408981
v -0.275000 -5.098294 -0.419849
v 0.275000 -5.098294 -0.419849
v -0.275000 -5.131191 -0.434781
v 0.275000 -5.131191 -0.434781
v -0.275000 -5.162054 -0.453559
v 0.275000 -5.162054 -0.453559
v -0.275000 -5.190437 -0.475910
v 0.275000 -5.190437 -0.475910
v -0.275000 -5.215927 -0.501511
v 0.275000 -5.215927 -0.501511
v -0.275000 -5.238155 -0.529991
v 0.275000 -5.238155 -0.529991
v -0.275000 -5.256798 -0.560936
v 0.275000 -5.256798 -0.560936
v -0.275000 -5.271586 -0.593897
v 0.275000 -5.271586 -0.593897
v -0.275000 -5.282306 -0.628397
v 0.275000 -5.282306 -0.628397
v -0.275000 -5.288800 -0.663936
v 0.275000 -5.288800 -0.663936
v -0.275000 -5.290975 -0.699997
v 0.275000 -5.290975 -0.699997
v 0.175000 -6.736432 -0.605825
v 0.175000 -6.045648 -0.605825
v -0.175000 -6.736432 -0.605825
v -0.175000 -6.045648 -0.605825
v 0.175000 -6.836935 -0.505322
v -0.175000 -6.836935 -0.505322
v 0.175000 -7.123111 -0.505322
v -0.175000 -7.123111 -0.505322
v 0.175000 -7.222366 -0.604576
v -0.175000 -7.222366 -0.604576
v 0.175000 -7.479988 -0.604576
v -0.175000 -7.479988 -0.604576
v -0.175000 -6.045648 -0.300000
v -0.175000 -7.784564 -0.300000
v 0.175000 -7.784564 -0.300000
v 0.175000 -6.045648 -0.300000
v -0.175000 -5.390975 -0.300000
v -0.175000 -5.970998 -0.300000
v -0.175000 -5.390975 -0.880023
v 0.175000 -5.390975 -0.300000
v 0.175000 -5.390975 -0.880023
v 0.175000 -5.970998 -0.300000
v 0.825000 -4.992279 -0.300000
v 0.275000 -6.045648 -0.300000
v 0.825000 -8.042279 -0.300000
v 0.275000 -5.970998 -0.300000
v -0.825000 -4.992279 -0.300000
v -0.275000 -5.970998 -0.300000
v -0.275000 -6.045648 -0.300000
v -0.825000 -8.042279 -0.300000
v -0.275000 -5.290975 -1.450612
v 0.275000 -5.290975 -1.450612
v 0.275000 -6.045648 -0.695939
v -0.275000 -6.045648 -0.695939
v -0.275000 -7.521485 -0.695939
v -0.275000 -7.817424 -0.400000
v 0.275000 -7.521485 -0.695939
v 0.275000 -7.817424 -0.400000
v -0.275000 -6.045648 -0.225350
v 0.275000 -6.045648 -0.225350
v 0.825000 -4.992279 -0.400000
v -0.825000 -4.992279 -0.400000
v 0.825000 -8.042279 -0.400000
v -0.825000 -8.042279 -0.400000
vn 0.0000 0.0646 -0.9979
vn 0.0000 0.0645 -0.9979
vn 0.0000 0.1840 -0.9829
vn 0.0000 0.3008 -0.9537
vn 0.0000 0.4133 -0.9106
vn 0.0000 0.5198 -0.8543
vn 0.0000 0.6187 -0.7856
vn 0.0000 0.7087 -0.7056
vn 0.0000 0.7883 -0.6153
vn 0.0000 0.8566 -0.5161
vn 0.0000 0.9124 -0.4093
vn 0.0000 0.9550 -0.2967
vn 0.0000 0.9837 -0.1797
vn 0.0000 0.9982 -0.0602
vn 0.0000 0.3009 -0.9537
vn 0.0000 0.7086 -0.7056
vn 0.0000 0.9837 -0.1798
vn 0.0000 0.0000 1.0000
vn 0.0000 0.7071 0.7071
vn 0.0000 -0.7071 0.7071
vn 1.0000 0.0000 0.0000
vn -1.0000 0.0000 0.0000
vn 0.0000 -1.0000 0.0000
vn 0.0000 1.0000 0.0000
vn 0.0000 -0.7071 -0.7071
vn 0.0000 0.0000 -1.0000
usemtl None
s off
f 1//1 2//1 3//1
f 3//2 2//2 4//2
f 5//3 4//3 6//3
f 7//4 6//4 8//4
f 9//5 8//5 10//5
f 11//6 10//6 12//6
f 13//7 12//7 14//7
f 15//8 14//8 16//8
f 17//9 16//9 18//9
f 19//10 18//10 20//10
f 21//11 20//11 22//11
f 23//12 22//12 24//12
f 25//13 24//13 26//13
f 27//14 26//14 28//14
f 27//14 25//14 26//14
f 3//3 4//3 5//3
f 5//15 6//15 7//15
f 7//5 8//5 9//5
f 9//6 10//6 11//6
f 11//7 12//7 13//7
f 13//16 14//16 15//16
f 15//9 16//9 17//9
f 17//10 18//10 19//10
f 19//11 20//11 21//11
f 21//12 22//12 23//12
f 23//17 24//17 25//17
f 29//18 30//18 31//18
f 31//18 30//18 32//18
f 29//19 31//19 33//19
f 33//19 31//19 34//19
f 35//18 33//18 36//18
f 36//18 33//18 34//18
f 35//20 36//20 37//20
f 37//20 36//20 38//20
f 39//18 37//18 40//18
f 40//18 37//18 38//18
f 31//21 32//21 34//21
f 34//21 32//21 41//21
f 42//21 34//21 41//21
f 42//21 36//21 34//21
f 42//21 40//21 36//21
f 36//21 40//21 38//21
f 39//19 40//19 43//19
f 43//19 40//19 42//19
f 37//22 39//22 35//22
f 35//22 39//22 43//22
f 33//22 43//22 44//22
f 30//22 33//22 44//22
f 30//22 29//22 33//22
f 35//22 43//22 33//22
f 45//21 46//21 47//21
f 48//23 45//23 49//23
f 49//23 45//23 47//23
f 49//22 50//22 48//22
f 51//18 52//18 53//18
f 51//18 54//18 52//18
f 51//18 48//18 54//18
f 51//18 55//18 48//18
f 48//18 55//18 45//18
f 45//18 55//18 56//18
f 46//18 45//18 56//18
f 56//18 55//18 57//18
f 57//18 55//18 58//18
f 42//18 58//18 43//18
f 42//18 57//18 58//18
f 42//18 41//18 57//18
f 58//18 53//18 43//18
f 43//18 53//18 52//18
f 44//18 43//18 52//18
f 48//18 50//18 54//18
f 27//24 28//24 59//24
f 59//24 28//24 60//24
f 61//25 62//25 60//25
f 60//25 62//25 59//25
f 63//22 64//22 62//22
f 62//22 64//22 11//22
f 13//22 62//22 11//22
f 13//22 15//22 62//22
f 62//22 15//22 17//22
f 19//22 62//22 17//22
f 19//22 21//22 62//22
f 62//22 21//22 23//22
f 25//22 62//22 23//22
f 25//22 27//22 62//22
f 62//22 27//22 59//22
f 1//22 3//22 64//22
f 64//22 3//22 5//22
f 7//22 64//22 5//22
f 7//22 9//22 64//22
f 64//22 9//22 11//22
f 61//26 65//26 62//26
f 62//26 65//26 63//26
f 66//25 64//25 65//25
f 65//25 64//25 63//25
f 2//21 66//21 4//21
f 4//21 66//21 6//21
f 6//21 66//21 8//21
f 8//21 66//21 10//21
f 10//21 66//21 12//21
f 12//21 66//21 61//21
f 14//21 61//21 16//21
f 14//21 12//21 61//21
f 66//21 65//21 61//21
f 60//21 28//21 61//21
f 61//21 28//21 26//21
f 24//21 61//21 26//21
f 24//21 22//21 61//21
f 61//21 22//21 20//21
f 18//21 61//21 20//21
f 18//21 16//21 61//21
f 56//22 57//22 67//22
f 54//19 50//19 68//19
f 68//19 50//19 46//19
f 67//19 46//19 56//19
f 67//19 68//19 46//19
f 49//19 47//19 50//19
f 50//19 47//19 46//19
f 52//23 68//23 44//23
f 44//23 68//23 67//23
f 41//23 67//23 57//23
f 41//23 44//23 67//23
f 41//23 30//23 44//23
f 41//23 32//23 30//23
f 54//21 68//21 52//21
f 69//24 2//24 51//24
f 51//24 2//24 1//24
f 55//24 1//24 70//24
f 55//24 51//24 1//24
f 2//26 69//26 66//26
f 66//26 69//26 71//26
f 72//26 66//26 71//26
f 72//26 64//26 66//26
f 72//26 70//26 64//26
f 64//26 70//26 1//26
f 53//23 58//23 71//23
f 71//23 58//23 72//23
f 70//22 72//22 55//22
f 55//22 72//22 58//22
f 71//21 69//21 53//21
f 53//21 69//21 51//21
